<?xml version="1.0" encoding="UTF-8"?>
<svg version="1.1" xmlns="http://www.w3.org/2000/svg" width="1098" height="832">
<path d="M0 0 C362.34 0 724.68 0 1098 0 C1098 274.56 1098 549.12 1098 832 C735.66 832 373.32 832 0 832 C0 557.44 0 282.88 0 0 Z " fill="#1D2736" transform="translate(0,0)"/>
<path d="M0 0 C0.91749023 0.00398804 1.83498047 0.00797607 2.78027344 0.01208496 C16.45664234 0.08170449 29.74433565 0.69578853 43.1875 3.375 C44.67428361 3.63393787 46.16126238 3.89175774 47.6484375 4.1484375 C86.54293988 11.35668504 122.10054118 33.21144804 150.1875 60.375 C150.98414063 61.12007812 151.78078125 61.86515625 152.6015625 62.6328125 C159.21059323 68.96160165 164.69953796 76.08194236 170.1875 83.375 C170.83187012 84.22022217 170.83187012 84.22022217 171.48925781 85.08251953 C189.20376105 108.42229805 201.98675836 136.31075209 207.71826172 165.06347656 C208.04082058 166.65243977 208.38206165 168.23768877 208.73876953 169.81933594 C214.8390033 197.05638983 214.03924133 226.98665362 209.1875 254.375 C209.05891602 255.16535645 208.93033203 255.95571289 208.79785156 256.77001953 C203.25630813 290.37884594 188.3172875 323.32654111 169.1875 351.375 C168.79449707 351.9534668 168.40149414 352.53193359 167.99658203 353.12792969 C161.91980406 362.00918601 155.31844803 370.31962317 148.1875 378.375 C147.74293457 378.87741211 147.29836914 379.37982422 146.84033203 379.89746094 C136.43366253 391.58547776 125.61163183 402.81689348 113.1875 412.375 C112.49833496 412.91350586 111.80916992 413.45201172 111.09912109 414.00683594 C75.09732286 442.07345061 12.34421652 482.59504103 -35.8125 477.375 C-38.12368163 473.90822756 -38.05667896 472.61168119 -38.03955078 468.52661133 C-38.03932419 466.72508354 -38.03932419 466.72508354 -38.03909302 464.88716125 C-38.02877045 463.59021835 -38.01844788 462.29327545 -38.0078125 460.95703125 C-38.00408155 459.61610627 -38.00123497 458.27517856 -37.99923706 456.93424988 C-37.99160699 453.40785167 -37.97196403 449.88161866 -37.9498291 446.35528564 C-37.9293571 442.75576004 -37.92023245 439.15620769 -37.91015625 435.55664062 C-37.88871745 428.49602624 -37.85458913 421.43552391 -37.8125 414.375 C-38.39498001 414.32016953 -38.97746002 414.26533905 -39.57759094 414.20884705 C-83.53151396 409.75684012 -128.48324584 379.49337929 -156.57617188 346.29052734 C-160.50149551 341.44847801 -164.19618394 336.45055235 -167.8125 331.375 C-168.27527344 330.73030762 -168.73804688 330.08561523 -169.21484375 329.42138672 C-175.76942234 320.20935398 -181.0822318 310.63463505 -185.8125 300.375 C-186.12316406 299.70291504 -186.43382812 299.03083008 -186.75390625 298.33837891 C-200.06418591 269.28827585 -206.0361293 239.81889726 -206.0625 207.9375 C-206.06350708 207.09217712 -206.06451416 206.24685425 -206.06555176 205.37591553 C-206.05542619 192.80859327 -205.57807172 180.68000606 -202.8125 168.375 C-202.60367187 167.37895752 -202.60367187 167.37895752 -202.390625 166.36279297 C-201.39029297 161.64016064 -200.16588334 157.00789846 -198.8125 152.375 C-198.59142578 151.60671875 -198.37035156 150.8384375 -198.14257812 150.046875 C-182.60904361 97.17392285 -147.03316761 54.07635201 -99.8125 26.375 C-98.92691406 25.8497876 -98.92691406 25.8497876 -98.0234375 25.31396484 C-83.25311545 16.65792689 -67.01639913 10.59075727 -50.5625 6 C-49.76191162 5.7736084 -48.96132324 5.5472168 -48.13647461 5.31396484 C-32.21625033 1.11588292 -16.40539793 -0.14543792 0 0 Z " fill="#1E2736" transform="translate(552.8125,177.625)"/>
<path d="M0 0 C0.91749023 0.00398804 1.83498047 0.00797607 2.78027344 0.01208496 C16.45664234 0.08170449 29.74433565 0.69578853 43.1875 3.375 C44.67428361 3.63393787 46.16126238 3.89175774 47.6484375 4.1484375 C86.54293988 11.35668504 122.10054118 33.21144804 150.1875 60.375 C150.98414063 61.12007812 151.78078125 61.86515625 152.6015625 62.6328125 C159.21059323 68.96160165 164.69953796 76.08194236 170.1875 83.375 C170.83187012 84.22022217 170.83187012 84.22022217 171.48925781 85.08251953 C189.20376105 108.42229805 201.98675836 136.31075209 207.71826172 165.06347656 C208.04082058 166.65243977 208.38206165 168.23768877 208.73876953 169.81933594 C214.8390033 197.05638983 214.03924133 226.98665362 209.1875 254.375 C209.05891602 255.16535645 208.93033203 255.95571289 208.79785156 256.77001953 C203.25630813 290.37884594 188.3172875 323.32654111 169.1875 351.375 C168.79449707 351.9534668 168.40149414 352.53193359 167.99658203 353.12792969 C161.91980406 362.00918601 155.31844803 370.31962317 148.1875 378.375 C147.74293457 378.87741211 147.29836914 379.37982422 146.84033203 379.89746094 C136.43366253 391.58547776 125.61163183 402.81689348 113.1875 412.375 C112.49833496 412.91350586 111.80916992 413.45201172 111.09912109 414.00683594 C75.09732286 442.07345061 12.34421652 482.59504103 -35.8125 477.375 C-38.12368163 473.90822756 -38.05667896 472.61168119 -38.03955078 468.52661133 C-38.03932419 466.72508354 -38.03932419 466.72508354 -38.03909302 464.88716125 C-38.02877045 463.59021835 -38.01844788 462.29327545 -38.0078125 460.95703125 C-38.00408155 459.61610627 -38.00123497 458.27517856 -37.99923706 456.93424988 C-37.99160699 453.40785167 -37.97196403 449.88161866 -37.9498291 446.35528564 C-37.9293571 442.75576004 -37.92023245 439.15620769 -37.91015625 435.55664062 C-37.88871745 428.49602624 -37.85458913 421.43552391 -37.8125 414.375 C-38.39498001 414.32016953 -38.97746002 414.26533905 -39.57759094 414.20884705 C-83.53151396 409.75684012 -128.48324584 379.49337929 -156.57617188 346.29052734 C-160.50149551 341.44847801 -164.19618394 336.45055235 -167.8125 331.375 C-168.27527344 330.73030762 -168.73804688 330.08561523 -169.21484375 329.42138672 C-175.76942234 320.20935398 -181.0822318 310.63463505 -185.8125 300.375 C-186.12316406 299.70291504 -186.43382812 299.03083008 -186.75390625 298.33837891 C-200.06418591 269.28827585 -206.0361293 239.81889726 -206.0625 207.9375 C-206.06350708 207.09217712 -206.06451416 206.24685425 -206.06555176 205.37591553 C-206.05542619 192.80859327 -205.57807172 180.68000606 -202.8125 168.375 C-202.60367187 167.37895752 -202.60367187 167.37895752 -202.390625 166.36279297 C-201.39029297 161.64016064 -200.16588334 157.00789846 -198.8125 152.375 C-198.59142578 151.60671875 -198.37035156 150.8384375 -198.14257812 150.046875 C-182.60904361 97.17392285 -147.03316761 54.07635201 -99.8125 26.375 C-98.92691406 25.8497876 -98.92691406 25.8497876 -98.0234375 25.31396484 C-83.25311545 16.65792689 -67.01639913 10.59075727 -50.5625 6 C-49.76191162 5.7736084 -48.96132324 5.5472168 -48.13647461 5.31396484 C-32.21625033 1.11588292 -16.40539793 -0.14543792 0 0 Z M-151.8125 78.375 C-156.19900386 83.44600382 -160.10770723 88.79133834 -163.8125 94.375 C-164.27414551 95.0673877 -164.73579102 95.75977539 -165.21142578 96.47314453 C-175.58544353 112.25037097 -184.15026299 129.33891687 -189.8125 147.375 C-190.32876953 148.95474609 -190.32876953 148.95474609 -190.85546875 150.56640625 C-196.34347084 168.37612952 -198.99487539 186.91037223 -198.9375 205.5 C-198.94136719 206.72976563 -198.94523437 207.95953125 -198.94921875 209.2265625 C-198.93594643 221.86181086 -198.19748631 234.11484422 -195.625 246.5 C-195.29399292 248.1099585 -195.29399292 248.1099585 -194.95629883 249.75244141 C-183.33585419 304.56064829 -152.00823455 350.27559315 -105.05859375 380.8515625 C-84.49491529 393.83278852 -60.14461683 404.71509968 -35.87109375 407.890625 C-32.8125 408.375 -32.8125 408.375 -30.8125 410.375 C-30.5340271 412.8553772 -30.5340271 412.8553772 -30.49365234 416.01806641 C-30.46384781 417.78967636 -30.46384781 417.78967636 -30.43344116 419.59707642 C-30.41611435 421.51742203 -30.41611435 421.51742203 -30.3984375 423.4765625 C-30.36938828 425.43666763 -30.36938828 425.43666763 -30.3397522 427.43637085 C-30.2883583 430.91167109 -30.24877178 434.38701012 -30.21160889 437.86248779 C-30.17161447 441.40842341 -30.12050141 444.95419662 -30.0703125 448.5 C-29.97346753 455.45821476 -29.88909034 462.41653365 -29.8125 469.375 C-27.73325057 469.06182096 -25.65428441 468.74676092 -23.57543945 468.4309082 C-22.41768509 468.25566116 -21.25993073 468.08041412 -20.0670929 467.89985657 C35.85150722 458.88206373 88.83428367 427.09997626 129.1875 388.375 C130.08210938 387.52164062 130.97671875 386.66828125 131.8984375 385.7890625 C137.31376552 380.50703487 142.24022931 374.97164184 146.90234375 369.01513672 C147.81414713 367.85147883 148.73138093 366.69206685 149.65234375 365.53564453 C172.5931413 336.6951718 190.85063803 303.48278685 199.1875 267.375 C199.37006348 266.60446289 199.55262695 265.83392578 199.74072266 265.04003906 C207.02760151 233.71980126 207.61344752 200.85066796 201.1875 169.375 C200.96320313 168.20372559 200.96320313 168.20372559 200.734375 167.00878906 C193.98693573 132.00644787 176.24675642 99.64260897 152.20703125 73.58203125 C150.44845093 71.66017848 148.77930225 69.69852511 147.125 67.6875 C143.82854593 63.82516962 140.06958566 60.63306174 136.1875 57.375 C135.31222656 56.611875 134.43695312 55.84875 133.53515625 55.0625 C116.16630534 40.14160794 96.31292138 29.05066992 75.1875 20.375 C74.53297852 20.10059082 73.87845703 19.82618164 73.20410156 19.54345703 C63.54871861 15.56264259 53.64554808 13.20918201 43.4375 11.0625 C42.22989014 10.80774902 41.02228027 10.55299805 39.77807617 10.29052734 C-32.79657191 -4.25116613 -102.88708281 24.89738248 -151.8125 78.375 Z " fill="#F2F3F4" transform="translate(552.8125,177.625)"/>
<path d="M0 0 C4.92017652 4.03919897 9.75814189 9.86322614 10.6484375 16.34375 C10.76518195 24.35241897 9.69065798 31.07156783 4.25390625 37.23046875 C-2.95857284 43.98076537 -9.18246177 45.45065986 -18.96875 45.265625 C-33.24069041 43.8564208 -46.58593013 34.44663048 -55.68359375 23.70703125 C-60.98924356 16.2708476 -65.06264554 7.92540675 -66.6875 -1.1015625 C-46.76169727 -15.16683501 -19.79343393 -13.49016777 0 0 Z " fill="#1F2836" transform="translate(674.6875,405.1015625)"/>
<path d="M0 0 C5.51363185 4.0311452 9.17743189 8.96392717 11.12109375 15.55078125 C12.19220946 23.18924277 11.41096938 28.89618943 7.0078125 35.30078125 C-1.39577999 45.32245676 -14.31262852 50.5317615 -27.16992188 51.77172852 C-29.49403932 51.88857942 -31.80190045 51.9305906 -34.12890625 51.92578125 C-34.95302002 51.92416992 -35.77713379 51.92255859 -36.6262207 51.92089844 C-46.97772492 51.71521938 -55.86770286 48.4981086 -64.87890625 43.55078125 C-65.29247467 37.63828465 -64.16065166 33.91791477 -61.50390625 28.80078125 C-60.9637085 27.75361938 -60.9637085 27.75361938 -60.41259766 26.68530273 C-52.8916045 12.71797349 -39.93312844 1.98196607 -24.7265625 -2.85546875 C-15.99298955 -4.67646064 -7.81748143 -4.55698835 0 0 Z " fill="#1F2837" transform="translate(673.87890625,318.44921875)"/>
<path d="M0 0 C11.3270977 8.27466553 21.64218387 18.94398912 24.93359375 33.01171875 C25.21875 34.9453125 25.21875 34.9453125 25.40625 37.7578125 C12.54173457 47.23692913 -2.14320347 47.8722682 -17.59375 46.7578125 C-21.92620241 45.94779202 -25.62673352 44.65610335 -29.59375 42.7578125 C-31.03814453 42.08685547 -31.03814453 42.08685547 -32.51171875 41.40234375 C-39.72496712 37.77138337 -47.29904468 32.96809202 -50.1484375 24.9609375 C-51.65790874 17.49302718 -51.86454181 10.0666483 -48.15625 3.2578125 C-44.56421254 -1.92120589 -39.68203463 -5.9254835 -33.62890625 -7.875 C-21.70153194 -10.02696389 -10.03387499 -6.48292572 0 0 Z " fill="#1E2836" transform="translate(477.59375,323.2421875)"/>
<path d="M0 0 C-2.60461047 15.62766284 -11.3850809 27.59898531 -23.9375 36.9375 C-34.78649323 44.03708117 -46.06992898 47.45062285 -59 46 C-65.60154764 43.56464646 -70.87116676 39.36196091 -74 33 C-76.62153168 26.26424955 -77.61857248 18.57717242 -75.16015625 11.625 C-69.62583978 2.08436017 -59.38598943 -4.54644411 -48.95727539 -7.59765625 C-32.42347805 -11.65103329 -14.00931025 -10.08670338 0 0 Z " fill="#1F2836" transform="translate(503,404)"/>
<path d="M0 0 C5.62069273 3.29198642 8.61775125 7.85679762 11.8125 13.375 C14.55775083 24.90505349 10.33203427 37.44984352 4.5625 47.5 C-3.27189608 59.37089964 -14.73864262 69.47832426 -29.03515625 72.52734375 C-30.86919023 72.76347158 -32.71628329 72.89549717 -34.5625 73 C-35.5273658 70.98227749 -36.48408397 68.96065793 -37.4375 66.9375 C-37.97117187 65.81214844 -38.50484375 64.68679688 -39.0546875 63.52734375 C-44.15734369 51.59030091 -44.84656883 35.66394469 -40.9375 23.1875 C-38.72096106 17.79549393 -35.82045425 12.82462078 -32.5625 8 C-31.94375 7.071875 -31.325 6.14375 -30.6875 5.1875 C-22.34137926 -3.40409488 -11.10840598 -4.94080387 0 0 Z " fill="#1E2836" transform="translate(611.5625,258)"/>
<path d="M0 0 C9.95373104 6.11231245 15.30839598 17.44836782 18.4375 28.3125 C22.06861115 44.84702397 18.52262826 58.97083385 10.5625 73.5 C-2.68867007 72.34772434 -13.88755082 64.92673613 -22.88671875 55.390625 C-31.64646006 44.71124264 -36.68555984 31.93329496 -35.91796875 18.11328125 C-34.91673416 10.58367155 -30.91073069 6.4797561 -25.28125 1.7265625 C-18.25978263 -2.94449842 -7.69581218 -3.41030108 0 0 Z " fill="#1E2836" transform="translate(523.4375,257.5)"/>
<path d="M0 0 C2.30419867 2.35794092 3.61480736 5.03040641 5 8 C5.39574219 8.83660156 5.79148437 9.67320312 6.19921875 10.53515625 C11.3954124 23.49829199 10.3897844 37.83245712 5.49609375 50.68359375 C3.36487854 55.40788022 0.93917841 59.73612147 -2 64 C-2.5775 64.928125 -3.155 65.85625 -3.75 66.8125 C-9.1344743 72.04740557 -15.09277032 74.31886354 -22.5625 74.625 C-29.73093048 74.31296244 -34.62171141 72.19626873 -39.8125 67.28515625 C-45.80050796 60.70698405 -46.54624004 54.58775865 -46.30859375 45.84765625 C-45.28628268 33.10111955 -37.70867597 20.67178833 -28.5234375 12.03515625 C-21.65187904 6.49323371 -9.31989321 -2.27819612 0 0 Z " fill="#1E2836" transform="translate(534,435)"/>
<path d="M0 0 C4.48599259 0.63033947 7.77156999 2.00354721 11.74609375 4.09765625 C12.45048584 4.46117187 13.15487793 4.8246875 13.88061523 5.19921875 C19.19476663 8.02588193 23.65994498 11.14189375 27.80859375 15.53515625 C28.6903125 16.38787109 28.6903125 16.38787109 29.58984375 17.2578125 C37.84350333 25.78297404 44.02351581 38.54684977 44.18359375 50.47265625 C44.0499631 57.5996245 42.02059015 61.90467404 37.49609375 67.28515625 C30.49472822 73.1467646 24.17005004 74.97174289 15.1015625 74.87109375 C7.74507411 74.12060976 3.02740089 69.42817476 -1.5234375 63.8984375 C-11.12494981 50.29442122 -12.85894915 34.78733489 -11.19140625 18.53515625 C-10.21826054 13.90639499 -8.41716112 9.69825831 -6.19140625 5.53515625 C-5.78535156 4.59671875 -5.37929688 3.65828125 -4.9609375 2.69140625 C-3.19140625 0.53515625 -3.19140625 0.53515625 0 0 Z " fill="#1E2836" transform="translate(580.19140625,434.46484375)"/>
<path d="M0 0 C4.92017652 4.03919897 9.75814189 9.86322614 10.6484375 16.34375 C10.76518195 24.35241897 9.69065798 31.07156783 4.25390625 37.23046875 C-2.95857284 43.98076537 -9.18246177 45.45065986 -18.96875 45.265625 C-33.24069041 43.8564208 -46.58593013 34.44663048 -55.68359375 23.70703125 C-60.98924356 16.2708476 -65.06264554 7.92540675 -66.6875 -1.1015625 C-46.76169727 -15.16683501 -19.79343393 -13.49016777 0 0 Z M-56.6875 0.8984375 C-57.85719916 2.66879276 -57.85719916 2.66879276 -57.6875 4.8984375 C-53.26327409 18.01722911 -43.75556723 27.58822759 -31.6875 33.8984375 C-24.19356604 37.52175995 -17.00915176 39.10465057 -8.6875 37.8984375 C-3.42270947 35.36005635 -0.19849252 31.69377367 2.5625 26.5859375 C4.10334116 21.06459003 4.15110815 16.78000495 1.375 11.7734375 C-5.07945313 2.6623172 -16.0818463 -1.09289791 -26.6875 -3.1015625 C-36.56363997 -4.34853868 -47.76447239 -3.91999741 -56.6875 0.8984375 Z " fill="#F4F5F5" transform="translate(674.6875,405.1015625)"/>
<path d="M0 0 C11.3270977 8.27466553 21.64218387 18.94398912 24.93359375 33.01171875 C25.21875 34.9453125 25.21875 34.9453125 25.40625 37.7578125 C12.54173457 47.23692913 -2.14320347 47.8722682 -17.59375 46.7578125 C-21.92620241 45.94779202 -25.62673352 44.65610335 -29.59375 42.7578125 C-31.03814453 42.08685547 -31.03814453 42.08685547 -32.51171875 41.40234375 C-39.72496712 37.77138337 -47.29904468 32.96809202 -50.1484375 24.9609375 C-51.65790874 17.49302718 -51.86454181 10.0666483 -48.15625 3.2578125 C-44.56421254 -1.92120589 -39.68203463 -5.9254835 -33.62890625 -7.875 C-21.70153194 -10.02696389 -10.03387499 -6.48292572 0 0 Z M-40.9765625 5.26171875 C-44.41925888 10.25723972 -44.44491162 15.90607638 -43.59375 21.7578125 C-39.61825495 30.53703074 -30.82549574 34.37619406 -22.328125 37.77734375 C-9.18197765 42.49117658 4.96956916 40.43851501 17.40625 34.7578125 C15.6707278 23.89617359 8.610488 15.6450226 0.40625 8.7578125 C-11.69107852 0.21215867 -29.12293414 -7.62993921 -40.9765625 5.26171875 Z " fill="#F4F5F5" transform="translate(477.59375,323.2421875)"/>
<path d="M0 0 C5.51363185 4.0311452 9.17743189 8.96392717 11.12109375 15.55078125 C12.19220946 23.18924277 11.41096938 28.89618943 7.0078125 35.30078125 C-1.39577999 45.32245676 -14.31262852 50.5317615 -27.16992188 51.77172852 C-29.49403932 51.88857942 -31.80190045 51.9305906 -34.12890625 51.92578125 C-34.95302002 51.92416992 -35.77713379 51.92255859 -36.6262207 51.92089844 C-46.97772492 51.71521938 -55.86770286 48.4981086 -64.87890625 43.55078125 C-65.29247467 37.63828465 -64.16065166 33.91791477 -61.50390625 28.80078125 C-60.9637085 27.75361938 -60.9637085 27.75361938 -60.41259766 26.68530273 C-52.8916045 12.71797349 -39.93312844 1.98196607 -24.7265625 -2.85546875 C-15.99298955 -4.67646064 -7.81748143 -4.55698835 0 0 Z M-50.1484375 23.18359375 C-55.3481753 30.13862693 -55.3481753 30.13862693 -56.5 38.34765625 C-56.29503906 39.0746875 -56.09007812 39.80171875 -55.87890625 40.55078125 C-48.79531524 43.66200554 -42.30210575 44.93848785 -34.62890625 44.92578125 C-33.51346436 44.92771484 -33.51346436 44.92771484 -32.37548828 44.9296875 C-22.06151842 44.72821595 -10.69857501 41.48859077 -2.37890625 35.23828125 C1.61321455 30.94675139 4.25163741 26.49309958 4.68359375 20.55078125 C4.35013659 14.50091568 0.77356507 10.04953431 -3.56640625 6.11328125 C-19.01003911 -4.32160582 -40.31253913 11.46163652 -50.1484375 23.18359375 Z " fill="#F4F5F6" transform="translate(673.87890625,318.44921875)"/>
<path d="M0 0 C-2.60461047 15.62766284 -11.3850809 27.59898531 -23.9375 36.9375 C-34.78649323 44.03708117 -46.06992898 47.45062285 -59 46 C-65.60154764 43.56464646 -70.87116676 39.36196091 -74 33 C-76.62153168 26.26424955 -77.61857248 18.57717242 -75.16015625 11.625 C-69.62583978 2.08436017 -59.38598943 -4.54644411 -48.95727539 -7.59765625 C-32.42347805 -11.65103329 -14.00931025 -10.08670338 0 0 Z M-66.5625 11.1875 C-69.58402173 14.99175577 -69.74214626 18.53973067 -69.44921875 23.28515625 C-68.51219445 28.94804222 -66.34116046 33.20015784 -62 37 C-56.98455749 40.13731936 -51.68543382 39.84051486 -46 39 C-29.90916519 34.69266568 -18.58490717 25.02775453 -10.3828125 10.8671875 C-9.08761381 8.18166252 -8.41946592 5.93626142 -8 3 C-9.74906531 2.35163958 -11.49929219 1.70641216 -13.25 1.0625 C-14.71179688 0.52302734 -14.71179688 0.52302734 -16.203125 -0.02734375 C-33.72150095 -6.11962812 -53.34655194 -1.68957759 -66.5625 11.1875 Z " fill="#F4F5F5" transform="translate(503,404)"/>
<path d="M0 0 C5.62069273 3.29198642 8.61775125 7.85679762 11.8125 13.375 C14.55775083 24.90505349 10.33203427 37.44984352 4.5625 47.5 C-3.27189608 59.37089964 -14.73864262 69.47832426 -29.03515625 72.52734375 C-30.86919023 72.76347158 -32.71628329 72.89549717 -34.5625 73 C-35.5273658 70.98227749 -36.48408397 68.96065793 -37.4375 66.9375 C-37.97117187 65.81214844 -38.50484375 64.68679688 -39.0546875 63.52734375 C-44.15734369 51.59030091 -44.84656883 35.66394469 -40.9375 23.1875 C-38.72096106 17.79549393 -35.82045425 12.82462078 -32.5625 8 C-31.94375 7.071875 -31.325 6.14375 -30.6875 5.1875 C-22.34137926 -3.40409488 -11.10840598 -4.94080387 0 0 Z M-27.1796875 12.171875 C-28.80956575 14.71805296 -30.20607728 17.29888155 -31.5625 20 C-32.18705078 21.16595703 -32.18705078 21.16595703 -32.82421875 22.35546875 C-37.27208942 32.17199735 -37.58940971 45.95430999 -34.43359375 56.24609375 C-33.27532901 59.25890203 -32.0496742 62.13718966 -30.5625 65 C-19.73444268 61.98234468 -9.91170161 56.51618947 -3.5625 47 C4.38833641 32.84246169 4.38833641 32.84246169 5.4375 17 C3.71754342 12.32811793 1.11164516 9.02994962 -3.1875 6.5 C-12.52920922 2.56200159 -21.13590066 4.05509847 -27.1796875 12.171875 Z " fill="#F2F3F3" transform="translate(611.5625,258)"/>
<path d="M0 0 C9.95373104 6.11231245 15.30839598 17.44836782 18.4375 28.3125 C22.06861115 44.84702397 18.52262826 58.97083385 10.5625 73.5 C-2.68867007 72.34772434 -13.88755082 64.92673613 -22.88671875 55.390625 C-31.64646006 44.71124264 -36.68555984 31.93329496 -35.91796875 18.11328125 C-34.91673416 10.58367155 -30.91073069 6.4797561 -25.28125 1.7265625 C-18.25978263 -2.94449842 -7.69581218 -3.41030108 0 0 Z M-27.125 13.30078125 C-30.47331278 18.9111982 -29.08316885 26.93454244 -27.55859375 32.9921875 C-22.27541719 47.81297982 -12.0201891 57.67688488 1.9609375 64.46875 C4.56089697 65.68425047 4.56089697 65.68425047 7.5625 65.5 C8.21615399 63.96163292 8.86003603 62.41911234 9.5 60.875 C9.85964844 60.01648438 10.21929688 59.15796875 10.58984375 58.2734375 C14.77136546 46.35022299 13.3805823 32.96525141 8.5625 21.5 C5.52386734 15.26056046 2.30536839 10.45619822 -3.4375 6.5 C-13.46645534 3.15701489 -20.19608009 5.90672551 -27.125 13.30078125 Z " fill="#F3F4F4" transform="translate(523.4375,257.5)"/>
<path d="M0 0 C2.30419867 2.35794092 3.61480736 5.03040641 5 8 C5.39574219 8.83660156 5.79148437 9.67320312 6.19921875 10.53515625 C11.3954124 23.49829199 10.3897844 37.83245712 5.49609375 50.68359375 C3.36487854 55.40788022 0.93917841 59.73612147 -2 64 C-2.5775 64.928125 -3.155 65.85625 -3.75 66.8125 C-9.1344743 72.04740557 -15.09277032 74.31886354 -22.5625 74.625 C-29.73093048 74.31296244 -34.62171141 72.19626873 -39.8125 67.28515625 C-45.80050796 60.70698405 -46.54624004 54.58775865 -46.30859375 45.84765625 C-45.28628268 33.10111955 -37.70867597 20.67178833 -28.5234375 12.03515625 C-21.65187904 6.49323371 -9.31989321 -2.27819612 0 0 Z M-27.99609375 21.46875 C-36.271619 31.92204506 -40.08616539 41.67750268 -39 55 C-37.1705813 60.4882561 -34.06632884 63.20916089 -29.140625 66.0859375 C-24.72973255 67.96942077 -19.55492664 67.78997732 -15.00390625 66.3828125 C-6.51218239 62.10858178 -3.141984 53.59960773 0.01953125 45.1484375 C3.98018333 32.43016827 2.91136361 19.82272721 -3 8 C-12.51277949 7.17203586 -21.84816022 14.85660787 -27.99609375 21.46875 Z " fill="#F3F3F4" transform="translate(534,435)"/>
<path d="M0 0 C4.48599259 0.63033947 7.77156999 2.00354721 11.74609375 4.09765625 C12.45048584 4.46117187 13.15487793 4.8246875 13.88061523 5.19921875 C19.19476663 8.02588193 23.65994498 11.14189375 27.80859375 15.53515625 C28.6903125 16.38787109 28.6903125 16.38787109 29.58984375 17.2578125 C37.84350333 25.78297404 44.02351581 38.54684977 44.18359375 50.47265625 C44.0499631 57.5996245 42.02059015 61.90467404 37.49609375 67.28515625 C30.49472822 73.1467646 24.17005004 74.97174289 15.1015625 74.87109375 C7.74507411 74.12060976 3.02740089 69.42817476 -1.5234375 63.8984375 C-11.12494981 50.29442122 -12.85894915 34.78733489 -11.19140625 18.53515625 C-10.21826054 13.90639499 -8.41716112 9.69825831 -6.19140625 5.53515625 C-5.78535156 4.59671875 -5.37929688 3.65828125 -4.9609375 2.69140625 C-3.19140625 0.53515625 -3.19140625 0.53515625 0 0 Z M0.80859375 7.53515625 C-5.66006456 18.69359183 -6.41900088 32.28807305 -3.26953125 44.71875 C-1.02135143 51.49978588 1.91988033 57.30624886 6.80859375 62.53515625 C7.246875 63.05980469 7.68515625 63.58445312 8.13671875 64.125 C11.2015079 67.3042784 13.96037481 67.91707723 18.18359375 68.09765625 C23.42256844 67.83392555 27.6195475 66.76585937 31.80859375 63.53515625 C35.98091379 58.29301055 37.23432792 53.97600174 37.1484375 47.41015625 C35.80286238 36.02690006 28.09487001 23.36413967 19.265625 16.171875 C10.57027848 10.23057966 10.57027848 10.23057966 0.80859375 7.53515625 Z " fill="#F3F4F5" transform="translate(580.19140625,434.46484375)"/>
<path d="M0 0 C0 3 0 3 -2 5.1875 C-2.66 5.785625 -3.32 6.38375 -4 7 C-4.66 6.67 -5.32 6.34 -6 6 C-2.25 1.125 -2.25 1.125 0 0 Z " fill="#2D3745" transform="translate(442,324)"/>
</svg>
